<mxfile host="app.diagrams.net" modified="2021-05-31T09:30:53.075Z" agent="5.0 (Windows)" etag="n5q5aH-YGR_aSoLAtcG5" version="14.5.8" type="github">
  <diagram id="aWVC-QR9eLqy2IWsYxHA" name="Page-1">
    <mxGraphModel dx="1146" dy="552" grid="1" gridSize="10" guides="1" tooltips="1" connect="1" arrows="1" fold="1" page="1" pageScale="1" pageWidth="850" pageHeight="1100" math="0" shadow="0">
      <root>
        <mxCell id="0" />
        <mxCell id="1" parent="0" />
        <mxCell id="7IZkJE4yfUbNufuBKW3c-7" value="" style="edgeStyle=orthogonalEdgeStyle;rounded=0;orthogonalLoop=1;jettySize=auto;html=1;" edge="1" parent="1" source="gzgc5nccffqlDQI2nCD0-1">
          <mxGeometry relative="1" as="geometry">
            <mxPoint x="105" y="120" as="targetPoint" />
          </mxGeometry>
        </mxCell>
        <mxCell id="gzgc5nccffqlDQI2nCD0-1" value="Start" style="ellipse;whiteSpace=wrap;html=1;" parent="1" vertex="1">
          <mxGeometry x="65" y="40" width="80" height="40" as="geometry" />
        </mxCell>
        <mxCell id="gzgc5nccffqlDQI2nCD0-2" value="End" style="ellipse;whiteSpace=wrap;html=1;" parent="1" vertex="1">
          <mxGeometry x="120" y="1040" width="80" height="40" as="geometry" />
        </mxCell>
        <mxCell id="7IZkJE4yfUbNufuBKW3c-8" value="" style="edgeStyle=orthogonalEdgeStyle;rounded=0;orthogonalLoop=1;jettySize=auto;html=1;" edge="1" parent="1" target="7IZkJE4yfUbNufuBKW3c-5">
          <mxGeometry relative="1" as="geometry">
            <mxPoint x="105" y="160.0000000000001" as="sourcePoint" />
          </mxGeometry>
        </mxCell>
        <mxCell id="7IZkJE4yfUbNufuBKW3c-4" value="introduction to program" style="rounded=1;whiteSpace=wrap;html=1;" vertex="1" parent="1">
          <mxGeometry x="45" y="120" width="120" height="40" as="geometry" />
        </mxCell>
        <mxCell id="7IZkJE4yfUbNufuBKW3c-16" value="" style="edgeStyle=orthogonalEdgeStyle;rounded=0;orthogonalLoop=1;jettySize=auto;html=1;" edge="1" parent="1" source="7IZkJE4yfUbNufuBKW3c-5" target="7IZkJE4yfUbNufuBKW3c-11">
          <mxGeometry relative="1" as="geometry" />
        </mxCell>
        <mxCell id="7IZkJE4yfUbNufuBKW3c-5" value="&lt;div&gt;input:&lt;/div&gt;&lt;div&gt;choice (menu choice)&lt;br&gt;&lt;/div&gt;" style="shape=parallelogram;perimeter=parallelogramPerimeter;whiteSpace=wrap;html=1;fixedSize=1;" vertex="1" parent="1">
          <mxGeometry x="50" y="200" width="110" height="50" as="geometry" />
        </mxCell>
        <mxCell id="7IZkJE4yfUbNufuBKW3c-17" value="" style="edgeStyle=orthogonalEdgeStyle;rounded=0;orthogonalLoop=1;jettySize=auto;html=1;" edge="1" parent="1" source="7IZkJE4yfUbNufuBKW3c-11" target="7IZkJE4yfUbNufuBKW3c-12">
          <mxGeometry relative="1" as="geometry" />
        </mxCell>
        <mxCell id="7IZkJE4yfUbNufuBKW3c-11" value="" style="rhombus;whiteSpace=wrap;html=1;" vertex="1" parent="1">
          <mxGeometry x="65" y="290" width="80" height="50" as="geometry" />
        </mxCell>
        <mxCell id="7IZkJE4yfUbNufuBKW3c-18" value="" style="edgeStyle=orthogonalEdgeStyle;rounded=0;orthogonalLoop=1;jettySize=auto;html=1;" edge="1" parent="1" source="7IZkJE4yfUbNufuBKW3c-12" target="7IZkJE4yfUbNufuBKW3c-13">
          <mxGeometry relative="1" as="geometry" />
        </mxCell>
        <mxCell id="7IZkJE4yfUbNufuBKW3c-12" value="" style="rhombus;whiteSpace=wrap;html=1;" vertex="1" parent="1">
          <mxGeometry x="180" y="290" width="80" height="50" as="geometry" />
        </mxCell>
        <mxCell id="7IZkJE4yfUbNufuBKW3c-13" value="" style="rhombus;whiteSpace=wrap;html=1;" vertex="1" parent="1">
          <mxGeometry x="290" y="290" width="80" height="50" as="geometry" />
        </mxCell>
      </root>
    </mxGraphModel>
  </diagram>
</mxfile>
